<svg width="101" height="100" viewBox="0 0 101 100" fill="none" xmlns="http://www.w3.org/2000/svg">
<path opacity="0.1" d="M65.3515 34.1463L54.9554 23.9024L44.5594 34.1463L37.6287 27.3171L48.0247 17.0732L37.6287 6.82927L44.5594 0L54.9554 10.2439L65.3515 0L72.2822 6.82927L61.8861 17.0732L72.2822 27.3171L65.3515 34.1463ZM30.203 80.4878C35.6485 80.4878 40.104 84.8781 40.104 90.2439C40.104 95.6098 35.6485 100 30.203 100C24.7574 100 20.302 95.6098 20.302 90.2439C20.302 84.8781 24.7574 80.4878 30.203 80.4878ZM79.7079 80.4878C85.1535 80.4878 89.6089 84.8781 89.6089 90.2439C89.6089 95.6098 85.1535 100 79.7079 100C74.2624 100 69.8069 95.6098 69.8069 90.2439C69.8069 84.8781 74.2624 80.4878 79.7079 80.4878ZM31.1931 64.8781C31.1931 65.3659 31.6881 65.8537 32.1832 65.8537H89.6089V75.6098H30.203C24.7574 75.6098 20.302 71.2195 20.302 65.8537C20.302 63.9024 20.797 62.439 21.2921 60.9756L27.7277 49.2683L10.401 12.1951H0.5V2.43902H16.8366L38.1238 46.3415H72.7772L92.0842 12.1951L100.5 17.0732L81.1931 51.2195C79.7079 54.1463 76.2426 56.0976 72.7772 56.0976H35.6485L31.1931 63.9024V64.8781Z" fill="#777777"/>
</svg>
